<svg version="1" xmlns="http://www.w3.org/2000/svg" width="520" height="520" viewBox="0 0 390.000000 390.000000"><path d="M238.5 39.4C235 41 229.2 47 226.3 52c-1.1 1.9-18.4 43.8-38.3 93-39.1 96.5-42.5 104.6-50.1 118.9-17.3 32.4-31.9 43.9-54.3 42.9-11-.5-16.6-2.7-22.9-9-17.2-17.3-14.9-50.9 5.4-76.4 14.9-18.7 36.3-28.5 72.5-33.3 20.6-2.7 25.5-5 29.5-13.6 2.1-4.5 2.5-12.9.8-17.2-1.5-4-5.7-8.1-11.4-11.1-4.9-2.6-5.5-2.7-22-2.7-15.1.1-18.2.4-27.7 2.8-44.1 11-77.7 36.5-95.3 72.2C6 231.6 2.6 243 .9 257.1c-4.6 39.9 11 72.8 41.6 87.9 13.4 6.6 18.4 7.5 39.5 7.4 17.2 0 19.1-.2 27.3-2.7 17.2-5.3 30.7-13.8 44.4-28 18.5-19.2 25.8-34.1 70.4-144.9 11.2-27.8 20.6-49.9 20.7-49 .2 1 1.7 7.1 3.3 13.6 4.3 17.9 8.4 22.7 19.4 22.7 8.3 0 13.6-3.3 26.7-16.8 6.3-6.5 14.7-15.2 18.7-19.3 6.4-6.7 7.1-7.1 5.8-4-.8 1.9-10.9 25.8-22.6 53.1-11.6 27.3-22 53.2-23.2 57.5-6.1 23.4 4.5 37.1 30.9 39.6 14.4 1.4 45.1.4 51.8-1.6 11.2-3.4 16.4-10.1 17.2-21.5.6-8-1.2-11.8-7.1-15.2-3.9-2.2-5.5-2.4-23.8-2.9l-19.6-.5 33.5-82.5 33.6-82.5v-7.7c.1-6.9-.2-8-2.9-11.9-1.9-2.7-5-5.4-8.4-7.1-4.5-2.4-6.5-2.8-13.1-2.8-6.9 0-8.5.4-15.1 3.7-7.7 3.9-13.3 8.9-50.9 46L282.5 104l-5.4-20.7c-3-11.5-6.6-23.9-8-27.7-3-7.8-8-14.2-12.8-16.2-4.1-1.8-13.9-1.7-17.8 0z"/></svg>